<?xml version="1.0" encoding="UTF-8"?>
<svg width="272px" height="272px" viewBox="0 0 272 272" version="1.1" xmlns="http://www.w3.org/2000/svg" xmlns:xlink="http://www.w3.org/1999/xlink">
    <!-- Generator: Sketch 53.2 (72643) - https://sketchapp.com -->
    <title>2hdp</title>
    <desc>Created with Sketch.</desc>
    <g id="Page-1" stroke="none" stroke-width="1" fill="none" fill-rule="evenodd">
        <g id="2hdp">
            <g id="Group-27">
                <g>
                    <rect id="Rectangle-10-Copy-2" fill="#000000" fill-rule="nonzero" x="0" y="0" width="272" height="272"></rect>
                    <path d="M49.102,151.338 L49.102,157 L30.482,157 L30.482,155.062 C30.482,148.944 35.156,146.398 39.108,143.586 C41.236,142.066 43.174,140.356 43.174,138.418 C43.174,136.67 42.148,135.226 39.982,135.226 C37.74,135.226 36.296,136.822 36.334,138.608 L30.596,138.608 C30.596,133.288 34.7,129.564 40.172,129.564 C44.732,129.564 48.912,132.414 48.912,138 C48.912,142.826 46.518,145.22 43.364,147.538 C42.072,148.488 39.298,149.97 38.576,151.338 L49.102,151.338 Z M69.2759999,157 L69.2759999,130.02 L75.3179999,130.02 L75.3179999,140.584 L86.1859999,140.584 L86.1859999,130.02 L92.2279999,130.02 L92.2279999,157 L86.1859999,157 L86.1859999,146.322 L75.3179999,146.322 L75.3179999,157 L69.2759999,157 Z M101.498,157 L101.498,130.02 L118.598,130.02 L118.598,135.796 L107.54,135.796 L107.54,140.622 L116.318,140.622 L116.318,146.398 L107.54,146.398 L107.54,151.224 L118.598,151.224 L118.598,157 L101.498,157 Z M137.558,157.456 C131.06,157.456 126.462,153.048 126.462,146.322 L126.462,130.02 L132.504,130.02 L132.504,146.398 C132.504,149.628 134.556,151.604 137.558,151.604 C140.56,151.604 142.612,149.628 142.612,146.398 L142.612,130.02 L148.654,130.02 L148.654,146.322 C148.654,153.048 144.018,157.456 137.558,157.456 Z M157.62,157 L157.62,130.02 L168.26,130.02 C173.352,130.02 176.62,133.668 176.62,138.152 C176.62,141.648 174.758,143.89 171.338,145.106 L180.876,157 L173.618,157 L164.65,145.866 L163.662,145.866 L163.662,157 L157.62,157 Z M163.662,140.736 L167.538,140.736 C169.324,140.736 170.616,139.71 170.616,138.152 C170.616,136.518 169.324,135.568 167.538,135.568 L163.662,135.568 L163.662,140.736 Z M186.346,157 L186.346,130.02 L203.446,130.02 L203.446,135.796 L192.388,135.796 L192.388,140.622 L201.166,140.622 L201.166,146.398 L192.388,146.398 L192.388,151.224 L203.446,151.224 L203.446,157 L186.346,157 Z M219.67,157.456 C215.414,157.456 211.766,155.67 209.676,152.63 L214.312,148.716 C215.604,150.654 217.922,151.794 219.898,151.794 C221.912,151.794 223.166,150.844 223.166,149.552 C223.166,148.184 222.102,147.234 219.404,146.322 L217.504,145.676 C213.134,144.194 210.702,141.572 210.702,137.886 C210.702,132.642 214.616,129.564 220.012,129.564 C223.28,129.564 226.206,130.59 228.714,133.288 L224.762,137.468 C223.508,135.948 221.798,135.226 220.088,135.226 C218.454,135.226 216.82,135.872 216.82,137.278 C216.82,138.722 218.15,139.368 221,140.394 L222.9,141.078 C226.814,142.484 229.36,145.068 229.322,149.134 C229.284,154.036 225.37,157.456 219.67,157.456 Z M31.85,199 L31.85,172.02 L41.046,172.02 C48.646,172.02 54.802,178.024 54.802,185.51 C54.802,192.996 48.646,199 41.046,199 L31.85,199 Z M37.892,193.452 L41.046,193.452 C45.606,193.452 48.684,189.842 48.684,185.51 C48.684,181.178 45.606,177.568 41.046,177.568 L37.892,177.568 L37.892,193.452 Z M62.5899999,199 L62.5899999,172.02 L79.6899999,172.02 L79.6899999,177.796 L68.6319999,177.796 L68.6319999,182.622 L77.4099999,182.622 L77.4099999,188.398 L68.6319999,188.398 L68.6319999,193.224 L79.6899999,193.224 L79.6899999,199 L62.5899999,199 Z M50.508,223.254 C50.508,228.46 46.442,232.45 41.008,232.45 L37.892,232.45 L37.892,241 L31.85,241 L31.85,214.02 L41.008,214.02 C46.442,214.02 50.508,218.048 50.508,223.254 Z M44.656,223.254 C44.656,221.24 43.098,219.72 40.932,219.72 L37.892,219.72 L37.892,226.788 L40.932,226.788 C43.098,226.788 44.656,225.23 44.656,223.254 Z M57.9539999,241 L57.9539999,214.02 L75.0539999,214.02 L75.0539999,219.796 L63.9959999,219.796 L63.9959999,224.622 L72.7739999,224.622 L72.7739999,230.398 L63.9959999,230.398 L63.9959999,235.224 L75.0539999,235.224 L75.0539999,241 L57.9539999,241 Z M83.2219999,241 L83.2219999,214.02 L93.8619999,214.02 C98.9539999,214.02 102.222,217.668 102.222,222.152 C102.222,225.648 100.36,227.89 96.9399999,229.106 L106.478,241 L99.2199999,241 L90.2519999,229.866 L89.2639999,229.866 L89.2639999,241 L83.2219999,241 Z M89.2639999,224.736 L93.1399999,224.736 C94.9259999,224.736 96.2179999,223.71 96.2179999,222.152 C96.2179999,220.518 94.9259999,219.568 93.1399999,219.568 L89.2639999,219.568 L89.2639999,224.736 Z M111.948,241 L111.948,214.02 L121.144,214.02 C128.744,214.02 134.9,220.024 134.9,227.51 C134.9,234.996 128.744,241 121.144,241 L111.948,241 Z M117.99,235.452 L121.144,235.452 C125.704,235.452 128.782,231.842 128.782,227.51 C128.782,223.178 125.704,219.568 121.144,219.568 L117.99,219.568 L117.99,235.452 Z M153.48,241.456 C146.982,241.456 142.384,237.048 142.384,230.322 L142.384,214.02 L148.426,214.02 L148.426,230.398 C148.426,233.628 150.478,235.604 153.48,235.604 C156.482,235.604 158.534,233.628 158.534,230.398 L158.534,214.02 L164.576,214.02 L164.576,230.322 C164.576,237.048 159.94,241.456 153.48,241.456 Z M173.542,241 L173.542,214.02 L190.642,214.02 L190.642,219.796 L179.584,219.796 L179.584,224.622 L188.362,224.622 L188.362,230.398 L179.584,230.398 L179.584,235.224 L190.642,235.224 L190.642,241 L173.542,241 Z M206.866,241.456 C202.61,241.456 198.962,239.67 196.872,236.63 L201.508,232.716 C202.8,234.654 205.118,235.794 207.094,235.794 C209.108,235.794 210.362,234.844 210.362,233.552 C210.362,232.184 209.298,231.234 206.6,230.322 L204.7,229.676 C200.33,228.194 197.898,225.572 197.898,221.886 C197.898,216.642 201.812,213.564 207.208,213.564 C210.476,213.564 213.402,214.59 215.91,217.288 L211.958,221.468 C210.704,219.948 208.994,219.226 207.284,219.226 C205.65,219.226 204.016,219.872 204.016,221.278 C204.016,222.722 205.346,223.368 208.196,224.394 L210.096,225.078 C214.01,226.484 216.556,229.068 216.518,233.134 C216.48,238.036 212.566,241.456 206.866,241.456 Z" id="2-HEURES-DE-PERDUES" stroke="#FEE600" fill="#FEE600"></path>
                </g>
            </g>
        </g>
    </g>
</svg>